<?xml version="1.0" standalone="no"?>
<!DOCTYPE svg PUBLIC "-//W3C//DTD SVG 20010904//EN"
        "http://www.w3.org/TR/2001/REC-SVG-20010904/DTD/svg10.dtd">
<svg version="1.0" xmlns="http://www.w3.org/2000/svg"
     width="1336.000000pt" height="1336.000000pt" viewBox="0 0 1336.000000 1336.000000"
     preserveAspectRatio="xMidYMid meet">
    <metadata>
        Created by potrace 1.14, written by Peter Selinger 2001-2017
    </metadata>
    <g transform="translate(0.000000,1336.000000) scale(0.100000,-0.100000)"
       fill="#000000" stroke="none">
        <path d="M6400 13349 c-604 -52 -1146 -215 -1645 -494 -337 -188 -598 -386
-883 -668 -598 -593 -994 -1357 -1137 -2192 -46 -270 -48 -325 -52 -1177 l-5
-818 -399 0 -399 0 0 -4000 0 -4000 4800 0 4800 0 0 4000 0 4000 -379 0 -380
0 -4 828 c-4 880 -4 876 -58 1202 -42 252 -143 598 -246 844 -386 916 -1068
1643 -1948 2076 -421 206 -843 329 -1325 386 -161 18 -592 26 -740 13z m575
-1614 c426 -53 834 -223 1185 -493 124 -96 333 -310 431 -442 86 -115 181
-266 234 -370 77 -151 162 -395 199 -570 49 -226 49 -222 53 -1062 l4 -798
-2400 0 -2401 0 0 729 c0 741 4 841 40 1046 38 218 118 461 213 650 108 216
272 441 452 620 249 249 513 423 835 549 347 137 773 189 1155 141z m183
-5847 c1 -544 5 -988 10 -988 4 0 23 10 42 21 33 21 215 126 480 279 63 36
354 204 647 373 292 169 535 307 540 307 6 -1 515 -874 531 -911 1 -3 -298
-180 -665 -392 -367 -212 -737 -425 -822 -474 -84 -49 -153 -93 -153 -98 0 -5
170 -107 378 -228 209 -120 442 -255 519 -299 77 -45 208 -120 290 -168 83
-48 219 -127 303 -175 84 -49 151 -91 150 -95 -16 -37 -525 -909 -531 -910 -8
0 -64 31 -342 192 -739 428 -1365 788 -1370 788 -3 0 -5 -430 -5 -955 l0 -955
-535 0 -535 0 0 920 c0 506 -2 920 -5 920 -2 0 -325 -185 -717 -412 -928 -535
-868 -502 -880 -490 -6 6 -127 212 -269 459 -186 321 -255 450 -246 456 13 8
83 49 587 340 168 97 471 272 674 389 203 117 369 217 369 223 0 11 -9 16
-293 180 -520 298 -1317 759 -1332 770 -15 10 12 61 242 459 142 246 263 453
268 458 11 11 15 8 557 -304 138 -80 372 -215 520 -300 149 -86 325 -188 392
-227 68 -39 125 -71 128 -71 3 0 5 430 5 955 l0 955 533 -2 532 -3 3 -987z"/>
    </g>
</svg>
