<?xml version="1.0" standalone="no"?>
<!DOCTYPE svg PUBLIC "-//W3C//DTD SVG 20010904//EN"
 "http://www.w3.org/TR/2001/REC-SVG-20010904/DTD/svg10.dtd">
<svg version="1.0" xmlns="http://www.w3.org/2000/svg"
 width="512.000000pt" height="512.000000pt" viewBox="0 0 512.000000 512.000000"
 preserveAspectRatio="xMidYMid meet">
<metadata>
Created by potrace 1.14, written by Peter Selinger 2001-2017
</metadata>
<g transform="translate(0.000000,512.000000) scale(0.100000,-0.100000)"
fill="#000000" stroke="none">
<path d="M3309 4126 c-2 -2 -53 -6 -112 -10 -292 -16 -568 -140 -782 -351 -51
-49 -105 -107 -121 -128 -53 -68 -133 -207 -165 -287 l-32 -79 -37 29 c-62 49
-180 107 -275 136 -100 29 -273 41 -374 24 -168 -28 -327 -108 -455 -229 -59
-57 -136 -152 -136 -170 0 -5 -3 -11 -7 -13 -5 -1 -16 -19 -25 -38 -76 -157
-98 -258 -93 -420 2 -63 7 -127 11 -142 6 -27 5 -28 -32 -29 -118 -2 -279 -60
-379 -135 -200 -151 -297 -353 -291 -604 3 -103 8 -129 49 -240 42 -114 149
-249 254 -321 64 -44 158 -86 243 -108 73 -19 133 -19 2010 -19 1898 -1 1936
0 2010 19 227 60 390 195 486 404 46 99 62 189 59 320 -3 119 -21 189 -77 300
-108 214 -346 372 -580 385 -4 0 2 26 13 58 20 57 42 149 54 232 8 51 8 292 0
330 -2 14 -10 50 -16 80 -67 340 -298 662 -592 829 -20 11 -52 29 -69 39 -98
55 -309 115 -448 127 -41 4 -78 9 -81 11 -3 2 -8 2 -10 0z"/>
</g>
</svg>
